<?xml version="1.0" standalone="no"?>
<!DOCTYPE svg PUBLIC "-//W3C//DTD SVG 20010904//EN"
 "http://www.w3.org/TR/2001/REC-SVG-20010904/DTD/svg10.dtd">
<svg version="1.0" xmlns="http://www.w3.org/2000/svg"
 width="512.000000pt" height="512.000000pt" viewBox="0 0 512.000000 512.000000"
 preserveAspectRatio="xMidYMid meet">
<metadata>
Created by potrace 1.16, written by Peter Selinger 2001-2019
</metadata>
<g transform="translate(0.000000,512.000000) scale(0.100000,-0.100000)"
fill="#000000" stroke="none">
<path d="M4230 5025 c-82 -23 -173 -69 -238 -119 -31 -24 -266 -253 -521 -509
l-463 -464 -60 18 c-33 11 -115 27 -183 37 l-123 17 -47 63 c-86 114 -224 206
-357 237 -69 16 -232 19 -291 6 l-38 -9 -36 56 c-106 166 -282 292 -477 342
-108 27 -283 28 -392 0 -224 -56 -418 -211 -520 -415 -69 -139 -87 -229 -82
-401 l4 -142 -57 -26 c-112 -51 -213 -167 -250 -287 -24 -76 -25 -214 -3 -290
43 -148 168 -274 315 -320 54 -17 95 -19 388 -19 l328 0 -5 -182 c-5 -202 9
-314 51 -429 l24 -64 -354 -356 -354 -355 -206 -534 c-204 -532 -205 -534
-201 -602 3 -55 9 -75 33 -109 41 -58 102 -89 177 -89 53 0 116 22 586 202
l527 201 258 256 257 256 0 -51 c0 -33 8 -66 24 -97 l23 -47 -23 -47 c-30 -59
-33 -159 -5 -218 23 -49 74 -99 122 -119 27 -11 41 -26 52 -53 32 -82 134
-191 216 -233 133 -67 329 -67 462 0 82 42 184 151 216 233 11 27 25 42 52 53
76 32 140 120 141 194 l0 34 48 -47 48 -47 49 51 c81 83 122 109 172 109 113
0 162 -72 163 -237 l0 -73 240 0 240 0 0 73 c1 165 50 237 163 237 50 0 91
-26 172 -109 l50 -51 172 172 173 173 -64 65 c-84 86 -96 106 -96 158 0 112
73 161 238 162 l72 0 0 239 0 238 -99 5 c-112 5 -151 22 -188 78 -28 40 -31
114 -7 150 9 14 45 54 80 90 l64 65 -173 173 -172 172 -50 -51 c-81 -83 -122
-109 -172 -109 -113 0 -162 72 -163 238 l0 72 -78 0 -79 0 -12 98 c-6 54 -22
136 -35 182 l-23 85 491 495 c513 517 531 538 584 678 24 61 26 81 27 212 0
126 -3 154 -23 211 -64 187 -211 336 -400 407 -56 21 -88 26 -197 28 -95 3
-145 0 -185 -11z m368 -200 c100 -47 180 -128 230 -232 33 -71 37 -87 40 -178
6 -161 -36 -259 -163 -385 l-65 -65 -337 338 -338 337 60 61 c33 33 79 74 101
90 135 93 319 107 472 34z m-3243 -292 c132 -32 263 -119 348 -232 l47 -62
-60 -46 c-116 -87 -213 -239 -241 -377 -11 -58 -15 -66 -40 -71 -35 -8 -108
-60 -144 -103 -34 -40 -65 -121 -65 -167 l0 -35 85 0 c81 0 85 1 85 23 0 63
76 127 150 127 74 0 150 -64 150 -127 0 -22 3 -23 86 -23 l87 0 -5 49 c-10 97
-82 198 -176 242 -26 12 -48 23 -49 24 -7 5 32 116 55 155 87 150 241 240 411
240 129 0 229 -39 323 -128 98 -92 148 -207 148 -340 0 -105 -4 -115 -61 -151
-91 -60 -157 -167 -166 -273 l-6 -58 87 0 c85 0 86 0 86 25 0 64 61 149 132
186 46 23 134 25 186 3 85 -35 142 -120 142 -214 0 -94 -55 -177 -145 -217
-38 -17 -105 -18 -1125 -21 -1126 -3 -1184 -1 -1261 39 -51 26 -112 87 -141
141 -19 36 -23 58 -23 138 0 79 4 102 23 137 33 63 74 106 134 139 48 26 62
29 148 29 80 0 102 -4 138 -23 91 -49 158 -141 169 -233 l6 -49 83 0 84 0 0
45 c0 57 -33 156 -72 217 -68 108 -196 192 -320 212 -65 10 -66 10 -72 46 -11
67 -6 216 9 275 88 337 432 542 770 458z m2825 -358 l335 -335 -58 -57 -57
-58 -337 337 -338 338 55 55 c30 30 57 55 60 55 3 0 156 -151 340 -335z m-440
-40 l135 -135 -179 -179 -178 -178 -84 63 c-47 35 -121 85 -165 110 l-81 47
203 203 c112 112 206 204 209 204 3 0 66 -61 140 -135z m400 -400 l135 -135
-206 -206 -206 -206 -52 90 c-29 49 -79 122 -111 163 l-58 74 176 178 c97 97
179 177 182 177 3 0 66 -61 140 -135z m-1234 50 c398 -115 731 -435 863 -831
79 -234 83 -512 11 -718 -54 -158 -119 -245 -375 -506 -216 -220 -296 -318
-363 -448 l-43 -82 -180 0 -179 0 0 233 c0 259 -5 281 -71 344 -54 51 -95 63
-214 63 -155 0 -201 27 -181 106 13 52 36 54 503 54 396 0 431 2 468 19 86 40
135 120 135 221 0 72 -19 122 -63 169 -66 70 -72 71 -458 71 -232 0 -357 4
-379 11 -48 17 -60 56 -60 193 l0 115 258 3 257 3 60 29 c77 38 153 114 191
191 27 56 29 68 29 175 0 107 -2 119 -29 175 -59 120 -184 211 -305 222 l-61
6 0 86 c0 47 -3 97 -7 110 -6 24 -6 24 49 18 30 -4 95 -18 144 -32z m-746
-1137 c0 -172 10 -207 71 -265 66 -62 73 -63 454 -63 278 0 352 -3 380 -14 37
-16 52 -48 41 -92 -13 -52 -36 -54 -501 -54 -469 0 -467 0 -534 -63 -49 -47
-71 -100 -71 -177 0 -77 22 -130 71 -177 54 -51 95 -63 212 -63 57 0 119 -5
137 -11 53 -19 60 -51 60 -274 l0 -195 -179 0 -180 0 -43 82 c-67 130 -145
226 -372 457 -259 265 -318 348 -382 541 -26 80 -28 95 -28 265 -1 99 3 197 7
218 l8 37 424 0 425 0 0 -152z m1869 -313 c57 -114 158 -175 294 -175 74 0
156 28 200 68 17 15 21 13 69 -36 49 -48 51 -52 36 -69 -9 -10 -28 -43 -42
-73 -50 -107 -29 -257 49 -348 45 -52 143 -102 202 -102 l43 0 0 -80 0 -80
-43 0 c-61 0 -157 -50 -203 -105 -78 -96 -98 -238 -48 -345 14 -30 33 -63 42
-73 15 -17 13 -21 -36 -69 -48 -49 -52 -51 -69 -36 -10 9 -43 28 -73 42 -107
50 -257 29 -348 -49 -52 -45 -102 -143 -102 -202 l0 -43 -80 0 -80 0 0 43 c0
61 -50 157 -105 203 -96 78 -238 98 -345 48 -30 -14 -63 -33 -73 -42 -16 -15
-21 -12 -67 33 -50 49 -50 49 -50 115 0 46 -6 78 -20 105 -11 22 -20 45 -20
52 0 44 179 321 199 308 5 -2 11 -22 15 -43 10 -65 80 -192 138 -251 116 -117
243 -171 405 -171 161 0 293 53 401 162 108 108 162 240 162 398 0 110 -16
174 -67 272 -84 160 -283 288 -451 288 -48 0 -53 2 -47 18 31 77 66 198 71
245 4 31 8 57 9 57 1 0 17 -29 34 -65z m-2576 -588 l80 -88 -286 -287 -287
-287 -137 138 -138 137 299 299 299 299 45 -61 c25 -34 81 -102 125 -150z
m2630 130 c74 -34 160 -119 195 -194 24 -52 27 -70 27 -163 0 -93 -3 -111 -27
-163 -35 -74 -121 -160 -195 -195 -52 -24 -70 -27 -163 -27 -93 0 -111 3 -163
27 -75 35 -160 121 -194 195 -21 46 -28 78 -31 149 l-4 91 107 116 c59 64 117
129 129 146 28 41 63 51 171 48 73 -2 101 -8 148 -30z m-2340 -426 c41 -43 96
-110 121 -147 l46 -69 -275 -275 -275 -275 -137 138 -138 137 285 285 c157
157 288 285 291 285 4 0 40 -36 82 -79z m-551 -862 c-10 -8 -485 -189 -497
-189 -13 0 -295 282 -295 295 0 6 40 114 88 240 49 127 92 239 96 249 6 17 55
-28 311 -284 168 -168 301 -307 297 -311z m1793 437 c61 -26 61 -106 0 -132
-51 -21 -799 -21 -850 0 -60 25 -61 106 -2 131 48 21 802 21 852 1z m0 -320
c61 -26 61 -106 0 -132 -51 -21 -799 -21 -850 0 -60 25 -61 106 -2 131 48 21
802 21 852 1z m-2572 -418 c-103 -40 -132 -45 -151 -26 -19 19 -15 46 25 150
l38 98 92 -92 93 -93 -97 -37z m2408 93 c-17 -31 -82 -82 -135 -107 -39 -18
-68 -24 -126 -24 -58 0 -87 6 -126 24 -53 25 -118 76 -135 107 -9 18 0 19 261
19 261 0 270 -1 261 -19z"/>
<path d="M3815 1741 c-87 -40 -135 -120 -135 -223 1 -142 97 -238 240 -238
144 0 240 96 240 240 0 104 -53 187 -142 224 -52 22 -153 20 -203 -3z m155
-171 c11 -11 20 -33 20 -50 0 -17 -9 -39 -20 -50 -11 -11 -33 -20 -50 -20 -17
0 -39 9 -50 20 -11 11 -20 33 -20 50 0 17 9 39 20 50 11 11 33 20 50 20 17 0
39 -9 50 -20z"/>
</g>
</svg>
