<?xml version="1.0" standalone="no"?>
<!DOCTYPE svg PUBLIC "-//W3C//DTD SVG 20010904//EN"
 "http://www.w3.org/TR/2001/REC-SVG-20010904/DTD/svg10.dtd">
<svg version="1.0" xmlns="http://www.w3.org/2000/svg"
 width="512.000000pt" height="512.000000pt" viewBox="0 0 512.000000 512.000000"
 preserveAspectRatio="xMidYMid meet">
<metadata>
Created by potrace 1.16, written by Peter Selinger 2001-2019
</metadata>
<g transform="translate(0.000000,512.000000) scale(0.100000,-0.100000)"
fill="#000000" stroke="none">
<path d="M2957 5036 c-57 -21 -103 -61 -128 -113 l-24 -48 -3 -579 c-2 -391 1
-596 8 -632 24 -114 116 -184 242 -184 l68 0 0 -147 c0 -122 4 -155 19 -189
32 -71 105 -111 187 -101 31 3 177 70 480 221 l436 216 305 0 c212 0 318 4
347 12 54 16 128 90 144 144 9 31 12 196 12 635 l0 594 -24 51 c-27 58 -80
106 -135 123 -60 17 -1883 15 -1934 -3z m1908 -171 l25 -24 0 -576 0 -576 -25
-24 -24 -25 -325 0 -324 0 -443 -221 c-243 -121 -448 -218 -455 -215 -11 4
-14 45 -14 196 0 189 0 191 -25 215 -23 23 -31 25 -130 25 -59 0 -115 4 -125
10 -10 5 -23 24 -29 41 -15 43 -15 1103 0 1146 5 17 20 35 32 41 15 7 311 11
930 11 l908 1 24 -25z"/>
<path d="M3580 4650 c-28 -28 -27 -90 1 -116 20 -18 43 -19 332 -22 331 -3
355 0 376 44 17 38 13 63 -14 89 l-24 25 -326 0 c-312 0 -326 -1 -345 -20z"/>
<path d="M3201 4314 c-28 -35 -26 -67 3 -101 l24 -28 669 -3 c367 -2 683 0
701 3 18 3 42 15 53 26 26 26 25 83 -1 109 -20 20 -33 20 -724 20 l-705 0 -20
-26z"/>
<path d="M3603 4010 c-45 -18 -58 -95 -23 -130 19 -19 33 -20 349 -20 l330 0
20 26 c28 35 26 67 -3 101 l-24 28 -314 2 c-172 1 -323 -2 -335 -7z"/>
<path d="M1615 4029 c-281 -41 -516 -167 -628 -337 -73 -110 -99 -195 -104
-342 -4 -109 -1 -140 22 -245 14 -66 30 -180 36 -254 20 -288 109 -566 236
-745 35 -49 36 -51 30 -130 -9 -138 -68 -251 -170 -324 -31 -22 -161 -79 -347
-152 -164 -65 -320 -130 -345 -144 -61 -36 -155 -130 -190 -190 -16 -27 -40
-78 -54 -115 l-26 -66 -3 -432 -3 -433 25 -25 25 -25 1604 0 1604 0 27 21 26
20 0 421 c0 463 -2 487 -63 603 -37 71 -152 190 -220 228 -27 14 -170 74 -318
132 -322 125 -337 133 -406 198 -73 68 -111 150 -124 266 l-11 88 40 59 c143
211 242 545 242 820 0 33 18 154 41 270 30 155 39 223 35 261 -20 174 -152
314 -312 330 -47 5 -57 10 -74 38 -32 52 -126 134 -184 161 -108 49 -259 65
-411 43z m322 -184 c65 -29 98 -58 150 -128 42 -57 70 -73 151 -86 76 -12 112
-31 150 -77 54 -65 57 -102 21 -292 -17 -92 -35 -171 -39 -175 -13 -14 -47 45
-59 101 -16 78 -35 116 -82 167 -52 57 -92 77 -186 99 -185 42 -428 42 -628 1
-95 -20 -142 -43 -190 -92 -48 -49 -71 -95 -84 -166 -10 -54 -42 -117 -60
-117 -4 0 -15 42 -25 94 -55 277 38 480 274 600 201 102 470 134 607 71z m24
-541 c135 -24 169 -53 195 -166 26 -109 82 -180 174 -218 l32 -13 -7 -71 c-40
-412 -213 -745 -449 -861 -95 -47 -183 -57 -282 -30 -265 72 -487 447 -520
882 l-7 82 34 14 c48 20 96 62 123 111 22 37 31 65 50 148 4 15 20 43 37 62
25 29 43 38 105 51 164 37 343 40 515 9z m-416 -1505 c84 -30 230 -36 314 -14
71 18 148 54 198 91 l32 25 7 -28 c11 -53 27 -98 46 -136 23 -47 24 -46 -94
-106 -110 -56 -202 -75 -346 -69 -127 6 -216 30 -317 89 -91 53 -89 49 -60
110 13 30 27 73 31 95 l6 42 62 -39 c34 -21 89 -48 121 -60z m-237 -921 c95
-348 172 -636 172 -640 0 -5 -281 -8 -625 -8 l-625 0 0 338 c0 190 5 356 11
381 23 102 98 209 186 264 21 13 162 72 313 131 151 59 298 120 325 136 28 15
55 28 61 29 5 0 88 -284 182 -631z m1407 467 c138 -54 267 -106 288 -117 85
-42 164 -137 198 -235 17 -51 19 -86 19 -410 l0 -353 -616 0 c-489 0 -615 3
-612 13 3 6 80 294 173 638 l168 625 66 -32 c36 -18 179 -76 316 -129z m-1331
125 c208 -95 480 -97 696 -5 44 18 80 31 80 28 0 -8 -318 -1188 -331 -1230
l-11 -33 -84 0 c-46 0 -84 2 -84 5 0 3 -76 287 -170 630 -93 343 -170 626
-170 629 0 9 2 8 74 -24z"/>
</g>
</svg>
