<?xml version="1.0" standalone="no"?>
<!DOCTYPE svg PUBLIC "-//W3C//DTD SVG 20010904//EN"
 "http://www.w3.org/TR/2001/REC-SVG-20010904/DTD/svg10.dtd">
<svg version="1.0" xmlns="http://www.w3.org/2000/svg"
 width="512.000000pt" height="512.000000pt" viewBox="0 0 512.000000 512.000000"
 preserveAspectRatio="xMidYMid meet">
<metadata>
Created by potrace 1.16, written by Peter Selinger 2001-2019
</metadata>
<g transform="translate(0.000000,512.000000) scale(0.100000,-0.100000)"
fill="#000000" stroke="none">
<path d="M2331 2572 c-382 -1049 -696 -1913 -698 -1919 -4 -10 46 -13 228 -13
l234 0 694 1908 c382 1049 696 1913 699 1920 3 9 -47 12 -229 12 l-234 0 -694
-1908z"/>
<path d="M600 3165 l-605 -605 607 -607 608 -608 150 150 c82 82 150 154 150
160 0 5 -201 211 -447 457 l-448 448 448 448 c246 246 447 452 447 457 0 10
-290 305 -300 305 -3 0 -277 -272 -610 -605z"/>
<path d="M3757 3622 c-81 -81 -147 -152 -147 -157 0 -5 201 -211 447 -457
l448 -448 -448 -448 c-246 -246 -447 -452 -447 -457 0 -6 68 -78 150 -160
l150 -150 608 608 607 607 -605 605 c-333 333 -607 605 -610 605 -3 0 -72 -66
-153 -148z"/>
</g>
</svg>
