<?xml version="1.0" standalone="no"?>
<!DOCTYPE svg PUBLIC "-//W3C//DTD SVG 20010904//EN"
 "http://www.w3.org/TR/2001/REC-SVG-20010904/DTD/svg10.dtd">
<svg version="1.0" xmlns="http://www.w3.org/2000/svg"
 width="512.000000pt" height="512.000000pt" viewBox="0 0 512.000000 512.000000"
 preserveAspectRatio="xMidYMid meet">
<metadata>
Created by potrace 1.16, written by Peter Selinger 2001-2019
</metadata>
<g transform="translate(0.000000,512.000000) scale(0.100000,-0.100000)"
fill="#000000" stroke="none">
<path d="M3934 5103 c-6 -10 -25 -43 -42 -74 l-31 -55 73 -42 c41 -23 76 -42
79 -42 6 0 87 136 87 147 0 8 -131 83 -147 83 -4 0 -13 -8 -19 -17z"/>
<path d="M265 5051 c-69 -17 -134 -70 -171 -141 -18 -34 -19 -95 -22 -1555 -2
-836 0 -1543 3 -1571 9 -73 58 -151 119 -189 l49 -30 584 -3 583 -3 0 85 0 86
-554 2 -554 3 -26 24 -26 24 0 1299 0 1298 1575 0 1575 0 0 -330 0 -330 85 0
85 0 0 574 0 574 -28 53 c-34 66 -94 114 -162 128 -58 13 -3064 14 -3115 2z
m3106 -197 c23 -24 24 -34 27 -160 l4 -134 -1576 0 -1576 0 0 135 c0 131 1
137 25 160 l24 25 1524 0 1524 0 24 -26z"/>
<path d="M402 4723 l3 -88 88 -3 87 -3 0 91 0 90 -90 0 -91 0 3 -87z"/>
<path d="M740 4720 l0 -90 85 0 85 0 0 90 0 90 -85 0 -85 0 0 -90z"/>
<path d="M1070 4720 l0 -90 90 0 90 0 0 90 0 90 -90 0 -90 0 0 -90z"/>
<path d="M4317 4782 l-57 -67 43 -38 c23 -20 54 -46 69 -57 l26 -20 57 67 57
67 -43 38 c-24 21 -56 47 -70 58 l-26 19 -56 -67z"/>
<path d="M3726 4763 c-27 -52 -36 -78 -28 -81 31 -10 234 -139 321 -204 124
-92 377 -345 469 -469 65 -88 194 -290 205 -321 5 -15 157 60 157 78 0 18
-127 224 -199 321 -156 213 -328 386 -540 544 -105 78 -315 209 -335 209 -6 0
-29 -35 -50 -77z"/>
<path d="M4677 4445 l-67 -57 20 -27 c10 -14 36 -45 57 -68 l38 -43 67 56 68
56 -20 27 c-11 14 -37 46 -58 70 l-38 43 -67 -57z"/>
<path d="M4973 4051 c-34 -20 -65 -40 -69 -43 -4 -4 13 -41 36 -82 l43 -76 56
32 c75 42 81 47 81 70 0 25 -62 138 -75 137 -5 0 -38 -17 -72 -38z"/>
<path d="M1240 3890 l0 -90 85 0 85 0 0 90 0 90 -85 0 -85 0 0 -90z"/>
<path d="M1570 3890 l0 -90 85 0 85 0 0 90 0 90 -85 0 -85 0 0 -90z"/>
<path d="M1900 3890 l0 -90 90 0 90 0 0 90 0 90 -90 0 -90 0 0 -90z"/>
<path d="M2230 3890 l0 -90 90 0 90 0 0 90 0 90 -90 0 -90 0 0 -90z"/>
<path d="M1715 3536 c-60 -28 -97 -66 -124 -126 -20 -45 -21 -57 -20 -1595 0
-1269 2 -1557 13 -1588 21 -57 58 -100 117 -132 l54 -30 1565 0 1565 0 40 22
c47 25 95 74 121 123 18 34 19 93 19 1600 l0 1566 -26 49 c-28 56 -91 109
-147 125 -25 6 -548 10 -1582 10 l-1545 0 -50 -24z m3149 -175 c26 -24 26 -27
26 -163 l0 -138 -1575 0 -1575 0 0 119 c0 65 5 132 11 150 23 65 -86 61 1576
58 l1511 -2 26 -24z m26 -1771 l0 -1301 -25 -24 -24 -25 -1524 0 -1524 0 -24
26 -24 26 -3 1299 -2 1299 1575 0 1575 0 0 -1300z"/>
<path d="M1900 3225 l0 -85 90 0 90 0 0 85 0 85 -90 0 -90 0 0 -85z"/>
<path d="M2230 3225 l0 -85 90 0 90 0 0 85 0 85 -90 0 -90 0 0 -85z"/>
<path d="M2570 3225 l0 -85 85 0 85 0 0 85 0 85 -85 0 -85 0 0 -85z"/>
<path d="M3102 2553 c-20 -8 -39 -53 -52 -130 -13 -70 -14 -71 -52 -87 l-40
-15 -66 44 c-51 35 -76 45 -106 45 -38 0 -47 -7 -178 -138 -131 -131 -138
-140 -138 -178 0 -30 10 -55 45 -106 l45 -67 -15 -39 c-16 -38 -18 -39 -88
-52 -81 -14 -122 -31 -131 -55 -3 -9 -6 -106 -6 -216 0 -237 0 -237 110 -258
96 -18 99 -19 115 -59 15 -36 15 -36 -30 -104 -75 -112 -73 -116 98 -286 168
-166 167 -166 269 -97 74 49 77 50 123 34 30 -11 32 -16 48 -98 25 -132 23
-131 258 -131 255 0 245 -5 278 160 10 50 15 56 49 71 l37 15 75 -49 c110 -71
112 -70 284 102 138 140 139 140 133 180 -3 23 -22 64 -47 101 -41 61 -42 64
-30 100 12 37 15 39 83 54 38 9 75 16 82 16 7 0 24 12 39 26 l26 27 0 198 c0
243 2 239 -130 267 -82 18 -85 19 -99 55 -13 35 -13 37 33 108 72 114 69 124
-107 297 -119 116 -127 122 -166 122 -32 0 -56 -10 -109 -45 -68 -45 -68 -45
-104 -30 -33 13 -37 20 -48 72 -31 160 -20 153 -269 152 -113 0 -212 -3 -219
-6z m313 -185 c3 -13 10 -45 15 -72 16 -72 24 -82 85 -105 31 -12 74 -30 95
-41 59 -30 96 -26 165 20 l60 40 65 -65 c61 -62 64 -66 51 -87 -81 -129 -77
-116 -59 -161 9 -23 28 -73 42 -112 15 -38 35 -77 45 -86 10 -8 51 -21 90 -28
l71 -13 0 -93 c0 -105 8 -95 -92 -115 -55 -11 -98 -43 -98 -73 0 -5 -16 -45
-36 -89 -42 -92 -41 -105 16 -188 l39 -57 -67 -66 -67 -65 -55 38 c-81 57 -93
57 -206 9 -55 -23 -107 -48 -116 -56 -9 -9 -22 -41 -28 -72 -20 -99 -10 -91
-114 -91 l-93 0 -12 70 c-7 39 -20 79 -29 89 -17 19 -175 89 -222 98 -18 3
-43 -8 -88 -36 -34 -23 -66 -41 -70 -41 -4 0 -36 28 -70 63 l-62 62 40 60 c47
71 50 105 16 173 -13 26 -30 67 -37 91 -15 51 -49 76 -118 86 -85 12 -81 6
-81 109 l0 93 72 13 c75 13 128 48 128 84 0 9 14 46 30 83 40 88 38 112 -11
185 l-41 60 65 66 66 65 65 -42 c53 -35 72 -42 98 -38 51 8 201 74 220 97 9
11 22 51 29 90 l12 70 93 0 c89 0 94 -1 99 -22z"/>
<path d="M3240 2059 c-118 -17 -206 -65 -293 -158 -90 -98 -129 -202 -129
-341 2 -329 298 -561 620 -485 88 21 151 56 225 125 206 192 211 513 12 716
-74 75 -179 129 -281 144 -77 11 -77 11 -154 -1z m212 -202 c134 -61 208 -200
185 -346 -31 -208 -263 -332 -452 -242 -69 32 -137 100 -168 169 -27 58 -29
187 -4 242 80 180 268 256 439 177z"/>
<path d="M570 3390 l0 -90 340 0 340 0 0 90 0 90 -340 0 -340 0 0 -90z"/>
<path d="M570 3060 l0 -90 340 0 340 0 0 90 0 90 -340 0 -340 0 0 -90z"/>
<path d="M570 2725 l0 -85 340 0 340 0 0 85 0 85 -340 0 -340 0 0 -85z"/>
<path d="M570 2395 l0 -85 340 0 340 0 0 85 0 85 -340 0 -340 0 0 -85z"/>
<path d="M570 2060 l0 -90 340 0 340 0 0 90 0 90 -340 0 -340 0 0 -90z"/>
<path d="M358 1401 c-38 -20 -68 -41 -68 -47 0 -18 127 -224 198 -321 155
-210 332 -388 541 -544 105 -78 315 -209 335 -209 11 0 93 147 85 153 -2 2
-31 18 -64 37 -324 179 -641 483 -853 816 -28 45 -59 98 -68 118 -10 20 -22
35 -28 35 -6 -1 -41 -18 -78 -38z"/>
<path d="M82 1227 c-39 -22 -72 -45 -72 -51 0 -13 68 -134 80 -141 10 -6 150
72 150 84 0 5 -77 141 -83 148 -1 1 -35 -17 -75 -40z"/>
<path d="M348 813 l-67 -56 29 -36 c16 -20 41 -51 57 -70 l29 -34 67 57 67 58
-19 26 c-11 15 -37 46 -58 69 l-38 42 -67 -56z"/>
<path d="M685 453 l-57 -67 33 -29 c19 -16 50 -42 70 -58 l37 -29 56 68 56 67
-43 38 c-23 21 -54 47 -68 57 l-27 20 -57 -67z"/>
<path d="M1081 159 c-28 -48 -38 -75 -32 -83 5 -6 39 -27 76 -46 56 -30 67
-33 75 -20 5 8 25 43 45 77 l35 61 -74 41 c-40 23 -76 41 -79 41 -3 0 -24 -32
-46 -71z"/>
</g>
</svg>
